<svg width="250" height="250" viewBox="0 0 250 250" fill="none" xmlns="http://www.w3.org/2000/svg">
<path fill-rule="evenodd" clip-rule="evenodd" d="M125 250C194.036 250 250 194.036 250 125C250 55.9644 194.036 0 125 0C55.9644 0 0 55.9644 0 125C0 194.036 55.9644 250 125 250ZM108.268 125.499H164.179C170.153 125.499 175 130.328 175 136.28V172.218C175 178.17 170.153 182.999 164.179 182.999H84.8214C78.8471 182.999 74 178.17 74 172.218V136.28C74 130.328 78.8471 125.499 84.8214 125.499H90.2321V102.477C90.2321 83.6096 105.45 68.0666 124.387 67.9992C143.325 67.9319 158.768 83.2727 158.768 102.14V105.734C158.768 108.721 156.356 111.124 153.357 111.124H146.143C143.144 111.124 140.732 108.721 140.732 105.734V102.14C140.732 93.1779 133.36 85.8781 124.342 85.968C115.415 86.0578 108.268 93.4475 108.268 102.342V125.499ZM124.5 168.624C129.482 168.624 133.518 164.604 133.518 159.64V148.859C133.518 143.895 129.482 139.874 124.5 139.874C119.518 139.874 115.482 143.895 115.482 148.859V159.64C115.482 164.604 119.518 168.624 124.5 168.624Z" fill="white"/>
</svg>
