<svg width="960" height="208" viewBox="0 0 960 208" fill="none" xmlns="http://www.w3.org/2000/svg">
<path d="M271.293 140.264H286.645V116.722H299.55C316.249 116.722 325.964 106.759 325.964 92.2586C325.964 77.8285 316.427 67.6531 299.94 67.6531H271.293V140.264ZM286.645 104.419V80.204H296.998C305.861 80.204 310.151 85.0258 310.151 92.2586C310.151 99.4558 305.861 104.419 297.069 104.419H286.645ZM344.977 160.686C356.216 160.686 362.172 154.942 365.257 146.149L386.423 85.8767L370.433 85.8058L359.052 125.799H358.485L347.21 85.8058H331.327L350.862 141.824L349.976 144.129C347.99 149.234 344.197 149.482 338.878 147.851L335.475 159.126C337.637 160.048 341.147 160.686 344.977 160.686ZM423.118 85.8058H412.872V72.7585H397.768V85.8058H390.323V97.1513H397.768V125.515C397.697 136.187 404.966 141.469 415.921 141.009C419.821 140.867 422.587 140.087 424.111 139.59L421.736 128.351C420.991 128.493 419.396 128.848 417.977 128.848C414.964 128.848 412.872 127.713 412.872 123.529V97.1513H423.118V85.8058ZM457.19 141.328C470.663 141.328 479.739 134.769 481.867 124.664L467.897 123.742C466.373 127.89 462.473 130.053 457.438 130.053C449.887 130.053 445.1 125.054 445.1 116.935V116.899H482.186V112.751C482.186 94.244 470.982 85.0967 456.587 85.0967C440.562 85.0967 430.174 96.4776 430.174 113.283C430.174 130.549 440.42 141.328 457.19 141.328ZM445.1 107.539C445.419 101.335 450.135 96.3713 456.836 96.3713C463.395 96.3713 467.933 101.051 467.968 107.539H445.1ZM537.353 101.335C536.006 91.3013 527.922 85.0967 514.166 85.0967C500.232 85.0967 491.049 91.5495 491.085 102.044C491.049 110.199 496.19 115.481 506.827 117.609L516.257 119.488C521.008 120.445 523.171 122.182 523.242 124.912C523.171 128.139 519.661 130.443 514.378 130.443C508.989 130.443 505.408 128.139 504.487 123.707L489.631 124.487C491.049 134.91 499.913 141.328 514.343 141.328C528.454 141.328 538.558 134.13 538.594 123.388C538.558 115.517 533.417 110.801 522.852 108.639L512.996 106.653C507.926 105.554 506.047 103.817 506.082 101.193C506.047 97.9313 509.734 95.804 514.414 95.804C519.661 95.804 522.781 98.6758 523.526 102.186L537.353 101.335ZM577.071 85.8058H566.824V72.7585H551.721V85.8058H544.275V97.1513H551.721V125.515C551.65 136.187 558.918 141.469 569.874 141.009C573.774 140.867 576.539 140.087 578.064 139.59L575.688 128.351C574.944 128.493 573.348 128.848 571.93 128.848C568.916 128.848 566.824 127.713 566.824 123.529V97.1513H577.071V85.8058ZM619.182 104.455H586.067V116.439H619.182V104.455ZM632.336 140.264H678.817V127.607H647.687V67.6531H632.336V140.264ZM713.305 141.328C729.827 141.328 740.109 130.018 740.109 113.248C740.109 96.3713 729.827 85.0967 713.305 85.0967C696.783 85.0967 686.501 96.3713 686.501 113.248C686.501 130.018 696.783 141.328 713.305 141.328ZM713.376 129.628C705.753 129.628 701.853 122.643 701.853 113.141C701.853 103.639 705.753 96.6195 713.376 96.6195C720.857 96.6195 724.757 103.639 724.757 113.141C724.757 122.643 720.857 129.628 713.376 129.628ZM774.535 141.328C789.036 141.328 798.148 132.819 798.857 120.303H784.604C783.718 126.118 779.889 129.379 774.712 129.379C767.657 129.379 763.083 123.459 763.083 113.035C763.083 102.753 767.692 96.8676 774.712 96.8676C780.243 96.8676 783.789 100.519 784.604 105.944H798.857C798.219 93.3576 788.681 85.0967 774.464 85.0967C757.942 85.0967 747.731 96.5486 747.731 113.248C747.731 129.805 757.765 141.328 774.535 141.328ZM808.527 140.264H823.631V122.962L827.708 118.318L842.563 140.264H860.255L839.018 109.383L859.227 85.8058H841.89L824.446 106.476H823.631V67.6531H808.527V140.264ZM889.213 141.328C902.685 141.328 911.762 134.769 913.889 124.664L899.92 123.742C898.395 127.89 894.495 130.053 889.461 130.053C881.909 130.053 877.123 125.054 877.123 116.935V116.899H914.208V112.751C914.208 94.244 903.005 85.0967 888.61 85.0967C872.585 85.0967 862.196 96.4776 862.196 113.283C862.196 130.549 872.443 141.328 889.213 141.328ZM877.123 107.539C877.442 101.335 882.157 96.3713 888.858 96.3713C895.417 96.3713 899.955 101.051 899.991 107.539H877.123ZM924.065 140.264H939.168V109.454C939.168 102.753 944.061 98.144 950.726 98.144C952.818 98.144 955.69 98.4986 957.108 98.9595V85.5576C955.761 85.2385 953.882 85.0258 952.357 85.0258C946.259 85.0258 941.26 88.5713 939.275 95.3076H938.707V85.8058H924.065V140.264Z" fill="#2678AC"/>
<g clip-path="url(#clip0_301:5)">
<circle cx="104" cy="104" r="104" fill="#2678AC"/>
<g clip-path="url(#clip1_301:5)">
<path d="M137.429 104.415H90.9109V85.1484C90.9109 77.7481 96.8569 71.5999 104.285 71.5252C111.788 71.4504 117.921 77.5239 117.921 84.9802V87.9702C117.921 90.4556 119.928 92.4552 122.423 92.4552H128.425C130.92 92.4552 132.927 90.4556 132.927 87.9702V84.9802C132.927 69.2827 120.078 56.5191 104.322 56.5752C88.5662 56.6313 75.9051 69.563 75.9051 85.2605V104.415H71.4034C66.4328 104.415 62.4 108.433 62.4 113.385V143.285C62.4 148.237 66.4328 152.255 71.4034 152.255H137.429C142.399 152.255 146.432 148.237 146.432 143.285V113.385C146.432 108.433 142.399 104.415 137.429 104.415ZM111.919 132.82C111.919 136.95 108.561 140.295 104.416 140.295C100.271 140.295 96.9131 136.95 96.9131 132.82V123.85C96.9131 119.72 100.271 116.375 104.416 116.375C108.561 116.375 111.919 119.72 111.919 123.85V132.82Z" fill="white"/>
</g>
<g clip-path="url(#clip2_301:5)">
<path d="M137.429 104.415H90.9109V85.1484C90.9109 77.7481 96.8569 71.5999 104.285 71.5252C111.788 71.4504 117.921 77.5239 117.921 84.9802V87.9702C117.921 90.4556 119.928 92.4552 122.423 92.4552H128.425C130.92 92.4552 132.927 90.4556 132.927 87.9702V84.9802C132.927 69.2827 120.078 56.5191 104.322 56.5752C88.5662 56.6313 75.9051 69.563 75.9051 85.2605V104.415H71.4034C66.4328 104.415 62.4 108.433 62.4 113.385V143.285C62.4 148.237 66.4328 152.255 71.4034 152.255H137.429C142.399 152.255 146.432 148.237 146.432 143.285V113.385C146.432 108.433 142.399 104.415 137.429 104.415ZM111.919 132.82C111.919 136.95 108.561 140.295 104.416 140.295C100.271 140.295 96.9131 136.95 96.9131 132.82V123.85C96.9131 119.72 100.271 116.375 104.416 116.375C108.561 116.375 111.919 119.72 111.919 123.85V132.82Z" fill="white"/>
</g>
</g>
<defs>
<clipPath id="clip0_301:5">
<rect width="208" height="208" fill="white"/>
</clipPath>
<clipPath id="clip1_301:5">
<rect width="84.032" height="95.68" fill="white" transform="translate(62.4 56.576)"/>
</clipPath>
<clipPath id="clip2_301:5">
<rect width="84.032" height="95.68" fill="white" transform="translate(62.4 56.576)"/>
</clipPath>
</defs>
</svg>
